<svg width="30.000000" height="30.000000" viewBox="0 0 30 30" fill="none" xmlns="http://www.w3.org/2000/svg" xmlns:xlink="http://www.w3.org/1999/xlink">
	<desc>
			Created with Pixso.
	</desc>
	<defs/>
	<circle id="Ellipse 61" cx="15.000000" cy="15.000000" r="15.000000" fill="#F3F7F4" fill-opacity="1.000000"/>
	<path id="Icon" d="M16.77 7L13.22 7C11.57 7 9.98 7.66 8.82 8.84C7.65 10.02 7 11.62 7 13.3L7 16C6.99 17.19 7.33 18.36 7.96 19.36C8.59 20.37 9.49 21.18 10.55 21.69L10.55 24.7C10.55 24.76 10.57 24.81 10.6 24.86C10.63 24.91 10.68 24.95 10.73 24.97C10.79 24.99 10.85 25 10.9 24.99C10.96 24.98 11.01 24.95 11.06 24.91L13.64 22.3L16.77 22.3C18.42 22.3 20.01 21.63 21.17 20.45C22.34 19.27 23 17.67 23 16L23 13.3C23 11.62 22.34 10.02 21.17 8.84C20.01 7.66 18.42 7 16.77 7ZM19.1 18.8L18.21 19.7C17.27 20.64 14.8 19.57 12.62 17.32C10.44 15.07 9.48 12.54 10.4 11.6L11.28 10.7C11.46 10.54 11.68 10.46 11.92 10.46C12.15 10.46 12.38 10.55 12.55 10.71L13.85 12.06C13.95 12.17 14.02 12.3 14.06 12.45C14.1 12.59 14.1 12.75 14.07 12.89C14.03 13.04 13.96 13.17 13.86 13.28C13.76 13.39 13.63 13.47 13.49 13.52C13.28 13.59 13.11 13.73 13 13.92C12.89 14.11 12.86 14.34 12.92 14.56C13.14 15.55 14.39 16.81 15.33 17.05C15.54 17.1 15.76 17.07 15.95 16.97C16.14 16.87 16.29 16.7 16.36 16.49C16.41 16.35 16.5 16.22 16.61 16.12C16.72 16.02 16.86 15.95 17 15.92C17.15 15.89 17.3 15.9 17.45 15.94C17.59 15.99 17.72 16.07 17.82 16.18L19.12 17.53C19.27 17.7 19.36 17.93 19.35 18.17C19.35 18.4 19.26 18.63 19.1 18.8ZM15.8 11.27C15.72 11.27 15.63 11.28 15.54 11.29C15.5 11.29 15.46 11.29 15.42 11.28C15.39 11.26 15.35 11.25 15.32 11.22C15.29 11.2 15.27 11.17 15.25 11.13C15.23 11.1 15.22 11.06 15.21 11.02C15.21 10.98 15.21 10.94 15.22 10.9C15.23 10.87 15.25 10.83 15.28 10.8C15.3 10.77 15.33 10.74 15.36 10.73C15.4 10.71 15.44 10.69 15.48 10.69C15.58 10.68 15.69 10.67 15.8 10.67C16.59 10.67 17.34 10.99 17.9 11.55C18.46 12.11 18.77 12.87 18.77 13.67C18.77 13.78 18.77 13.89 18.76 14C18.75 14.04 18.74 14.08 18.72 14.12C18.7 14.15 18.68 14.18 18.65 14.21C18.62 14.23 18.58 14.25 18.54 14.26C18.51 14.27 18.47 14.27 18.43 14.27C18.39 14.27 18.35 14.25 18.32 14.23C18.28 14.22 18.25 14.19 18.23 14.16C18.21 14.13 18.19 14.09 18.18 14.06C18.17 14.02 18.16 13.98 18.17 13.94C18.18 13.85 18.18 13.76 18.18 13.67C18.18 13.03 17.93 12.42 17.48 11.97C17.04 11.52 16.43 11.27 15.8 11.27ZM17.58 13.67C17.58 13.75 17.54 13.82 17.49 13.87C17.43 13.92 17.36 13.95 17.29 13.95C17.21 13.95 17.14 13.92 17.08 13.87C17.03 13.82 16.99 13.75 16.99 13.67C16.99 13.35 16.86 13.05 16.64 12.82C16.42 12.6 16.12 12.47 15.8 12.47C15.76 12.48 15.72 12.47 15.68 12.46C15.64 12.44 15.61 12.42 15.58 12.39C15.55 12.37 15.52 12.33 15.51 12.29C15.49 12.25 15.48 12.21 15.48 12.17C15.48 12.13 15.49 12.09 15.51 12.05C15.52 12.01 15.55 11.98 15.58 11.95C15.61 11.92 15.64 11.9 15.68 11.89C15.72 11.87 15.76 11.87 15.8 11.87C16.28 11.87 16.73 12.06 17.06 12.4C17.39 12.74 17.58 13.19 17.58 13.67ZM19.84 14.65C19.84 14.69 19.82 14.73 19.8 14.76C19.78 14.8 19.75 14.83 19.71 14.85C19.68 14.87 19.64 14.89 19.6 14.89C19.56 14.9 19.52 14.9 19.48 14.89C19.44 14.88 19.4 14.86 19.37 14.84C19.34 14.81 19.31 14.78 19.29 14.75C19.27 14.71 19.26 14.67 19.25 14.63C19.25 14.59 19.25 14.55 19.26 14.51C19.33 14.23 19.36 13.96 19.36 13.68C19.36 12.72 18.98 11.81 18.32 11.13C17.65 10.46 16.75 10.08 15.8 10.08C15.71 10.08 15.62 10.08 15.53 10.08C15.49 10.08 15.45 10.07 15.41 10.06C15.38 10.05 15.34 10.03 15.31 10C15.25 9.95 15.22 9.88 15.21 9.8C15.2 9.72 15.23 9.64 15.28 9.58C15.33 9.52 15.41 9.48 15.48 9.48C15.59 9.47 15.7 9.46 15.8 9.46C16.9 9.47 17.96 9.91 18.74 10.7C19.52 11.49 19.95 12.56 19.95 13.67C19.95 14 19.92 14.33 19.84 14.65Z" fill="#105720" fill-opacity="1.000000" fill-rule="nonzero"/>
</svg>
