<svg width="200.000000" height="200.000000" viewBox="0 0 200 200" fill="none" xmlns="http://www.w3.org/2000/svg" xmlns:xlink="http://www.w3.org/1999/xlink">
	<desc>
			Created with Pixso.
	</desc>
	<defs>
		<clipPath id="clip0_983">
			<rect id="play" rx="-0.500000" width="31.000000" height="31.000000" transform="translate(84.500000 84.500000)" fill="white" fill-opacity="0"/>
		</clipPath>
	</defs>
	<path id="[Linked] Ellipse 94" d="M188.4 99.99C188.4 148.85 148.82 188.45 100 188.45C51.18 188.45 11.6 148.85 11.6 99.99C11.6 51.14 51.18 11.54 100 11.54C148.82 11.54 188.4 51.14 188.4 99.99Z" fill="#D9D9D9" fill-opacity="0" fill-rule="nonzero"/>
	<path id="[Copy] Видео о компании «ЭКОЛОМ» Видео о компании «ЭКОЛОМ»" d="M193.69 104.96L193.89 101.73L182.49 101.02L182.25 104.95Q182.18 106.16 182.49 107.07C182.7 107.68 183.04 108.16 183.5 108.52C183.96 108.87 184.55 109.07 185.25 109.12Q186.11 109.17 186.7 108.88C187.08 108.68 187.39 108.4 187.63 108.03C187.86 107.65 188.03 107.22 188.14 106.73L188.21 106.73C188.27 107.21 188.41 107.62 188.62 107.95C188.82 108.29 189.1 108.55 189.44 108.74C189.78 108.94 190.17 109.04 190.61 109.07Q191.69 109.14 192.36 108.65Q192.65 108.44 192.86 108.13Q193.56 107.09 193.69 104.96ZM188.79 104.94L188.92 102.75L192.68 102.98L192.56 104.95Q192.47 106.44 192 107.09Q191.85 107.29 191.66 107.43Q191.23 107.73 190.55 107.69C189.92 107.65 189.45 107.43 189.15 107.03Q188.69 106.42 188.79 104.94ZM183.54 102.42L187.81 102.68L187.67 104.94Q187.6 106 187.32 106.62C187.13 107.03 186.87 107.32 186.55 107.49C186.24 107.66 185.86 107.74 185.43 107.71Q184.68 107.66 184.18 107.29Q184 107.15 183.86 106.98Q183.3 106.31 183.4 104.79L183.54 102.42Z" fill="#105720" fill-opacity="1.000000" fill-rule="evenodd"/>
	<path id="[Copy] Видео о компании «ЭКОЛОМ» Видео о компании «ЭКОЛОМ»" d="M184.58 113.41L189.87 114.44L190.1 113.22L181.7 111.59L181.39 113.16L187.62 119.11C187.48 119.08 187.29 119.04 187.05 118.98C186.8 118.92 186.55 118.86 186.29 118.81C186.04 118.75 185.83 118.71 185.67 118.68L180.51 117.67L180.28 118.86L188.69 120.5L188.99 118.94L182.76 112.96C182.87 112.99 183 113.03 183.17 113.07C183.33 113.11 183.5 113.15 183.68 113.2C183.86 113.24 184.03 113.28 184.19 113.32C184.35 113.36 184.48 113.39 184.58 113.41Z" fill="#105720" fill-opacity="1.000000" fill-rule="evenodd"/>
	<path id="[Copy] Видео о компании «ЭКОЛОМ» Видео о компании «ЭКОЛОМ»" d="M178.65 128.22L185.75 130.53L187.12 126.3C186.26 126.01 185.44 125.65 184.64 125.22Q183.45 124.57 182.45 123.73Q181.45 122.9 180.71 121.88L180.92 121.25L177.05 119.99L176.67 121.17L179.49 122.09L177.62 127.85L174.8 126.94L174.41 128.14L178.28 129.39L178.65 128.22ZM185.78 127.08L185.16 129.01L179.04 127.03L180.29 123.17Q180.88 123.96 181.76 124.7Q182.64 125.44 183.68 126.05Q184.72 126.66 185.78 127.08Z" fill="#105720" fill-opacity="1.000000" fill-rule="evenodd"/>
	<path id="[Copy] Видео о компании «ЭКОЛОМ» Видео о компании «ЭКОЛОМ»" d="M181.74 139.27C182.25 138.92 182.65 138.42 182.95 137.76Q183.37 136.83 183.3 135.94Q183.3 135.83 183.28 135.72Q183.25 135.52 183.2 135.33Q182.99 134.55 182.4 133.88Q181.67 133.03 180.41 132.46Q179.13 131.88 178.03 131.94C177.3 131.97 176.65 132.2 176.09 132.62Q175.25 133.25 174.74 134.37Q174.38 135.16 174.24 135.8Q174.1 136.43 174.1 137.14L175.13 137.61C175.14 137.13 175.19 136.67 175.27 136.25C175.35 135.83 175.51 135.37 175.73 134.88Q176.17 133.91 176.91 133.51Q177.09 133.41 177.29 133.34C177.97 133.12 178.77 133.21 179.7 133.61L177.25 139L177.98 139.33C178.69 139.65 179.37 139.81 180.01 139.79C180.65 139.78 181.23 139.61 181.74 139.27ZM182.21 136.06Q182.29 136.66 181.99 137.31Q181.69 137.97 181.2 138.27C180.87 138.46 180.5 138.55 180.08 138.53C179.67 138.51 179.23 138.39 178.76 138.19L180.63 134.06C181.34 134.47 181.81 134.95 182.06 135.52Q182.17 135.78 182.21 136.06Z" fill="#105720" fill-opacity="1.000000" fill-rule="evenodd"/>
	<path id="[Copy] Видео о компании «ЭКОЛОМ» Видео о компании «ЭКОЛОМ»" d="M171.05 146.48C171.43 146.92 171.92 147.32 172.52 147.69C173.32 148.17 174.08 148.44 174.82 148.5Q175.62 148.56 176.31 148.32Q176.57 148.24 176.82 148.1Q176.86 148.08 176.9 148.06Q177.74 147.57 178.32 146.62Q178.95 145.56 178.96 144.53C178.97 143.85 178.77 143.2 178.37 142.59C177.97 141.98 177.37 141.43 176.56 140.95Q175.66 140.4 174.8 140.22Q173.95 140.04 173.19 140.19C172.69 140.29 172.23 140.5 171.81 140.8C171.39 141.11 171.04 141.5 170.74 142Q170.27 142.79 170.15 143.57C170.07 144.09 170.1 144.59 170.25 145.08Q170.48 145.82 171.05 146.48ZM174.2 141.41C174.73 141.52 175.28 141.75 175.87 142.1Q177.21 142.91 177.65 143.89C177.94 144.55 177.86 145.26 177.4 146.03Q176.93 146.8 176.29 147.08C175.86 147.27 175.39 147.31 174.87 147.21Q174.09 147.06 173.21 146.53Q172.33 146 171.82 145.38C171.48 144.96 171.29 144.52 171.25 144.05C171.21 143.58 171.34 143.09 171.65 142.58Q172.11 141.81 172.76 141.53C173.19 141.35 173.67 141.31 174.2 141.41Z" fill="#105720" fill-opacity="1.000000" fill-rule="evenodd"/>
	<path id="[Copy] Видео о компании «ЭКОЛОМ» Видео о компании «ЭКОЛОМ»" d="" fill="#105720" fill-opacity="1.000000" fill-rule="evenodd"/>
	<path id="[Copy] Видео о компании «ЭКОЛОМ» Видео о компании «ЭКОЛОМ»" d="M162.45 157.52C162.75 158.02 163.17 158.49 163.7 158.95C164.41 159.55 165.12 159.95 165.84 160.12Q166.61 160.32 167.34 160.2Q167.61 160.15 167.87 160.06Q167.92 160.05 167.96 160.03Q168.88 159.69 169.6 158.84Q170.4 157.91 170.57 156.89C170.69 156.22 170.61 155.55 170.31 154.88C170.01 154.21 169.51 153.57 168.8 152.96Q167.99 152.28 167.18 151.96Q166.36 151.64 165.59 151.66C165.08 151.68 164.59 151.81 164.13 152.04C163.67 152.27 163.25 152.61 162.88 153.04Q162.28 153.75 162.04 154.5C161.88 155 161.83 155.5 161.89 156.01Q161.99 156.77 162.45 157.52ZM166.39 153.03C166.89 153.22 167.4 153.54 167.93 153.99Q169.12 155 169.38 156.05C169.56 156.74 169.37 157.43 168.79 158.11Q168.2 158.8 167.52 158.97C167.07 159.08 166.59 159.05 166.1 158.86Q165.35 158.59 164.57 157.92Q163.79 157.26 163.39 156.56C163.12 156.09 163.01 155.62 163.05 155.15C163.08 154.68 163.3 154.22 163.68 153.77Q164.26 153.08 164.95 152.92C165.4 152.81 165.88 152.85 166.39 153.03Z" fill="#105720" fill-opacity="1.000000" fill-rule="evenodd"/>
	<path id="[Copy] Видео о компании «ЭКОЛОМ» Видео о компании «ЭКОЛОМ»" d="" fill="#105720" fill-opacity="1.000000" fill-rule="evenodd"/>
	<path id="[Copy] Видео о компании «ЭКОЛОМ» Видео о компании «ЭКОЛОМ»" d="M156.7 171.23L157.79 170.3L157.88 164.74L160.59 167.9L161.58 167.05L156 160.55L155.01 161.4L157.84 164.7L152.06 163.93L150.91 164.93L156.82 165.69L156.7 171.23Z" fill="#105720" fill-opacity="1.000000" fill-rule="evenodd"/>
	<path id="[Copy] Видео о компании «ЭКОЛОМ» Видео о компании «ЭКОЛОМ»" d="M144.79 172.15C144.95 172.71 145.23 173.28 145.62 173.86C146.15 174.63 146.73 175.2 147.37 175.56Q148.07 175.96 148.8 176.04Q149.07 176.06 149.35 176.05Q149.39 176.04 149.44 176.04Q150.41 175.96 151.34 175.33Q152.35 174.64 152.79 173.71C153.09 173.09 153.18 172.42 153.08 171.7C152.97 170.97 152.65 170.22 152.13 169.45Q151.53 168.58 150.83 168.05Q150.13 167.52 149.38 167.34C148.88 167.22 148.38 167.21 147.87 167.32C147.37 167.42 146.88 167.63 146.4 167.95Q145.64 168.47 145.2 169.13C144.91 169.57 144.73 170.04 144.66 170.55Q144.56 171.31 144.79 172.15ZM149.78 168.88C150.22 169.19 150.63 169.63 151.02 170.2Q151.89 171.5 151.87 172.58C151.86 173.3 151.49 173.91 150.75 174.41Q150 174.91 149.3 174.9C148.83 174.89 148.39 174.73 147.96 174.42Q147.31 173.95 146.74 173.11Q146.16 172.25 145.96 171.47C145.83 170.95 145.84 170.47 146 170.03C146.16 169.58 146.49 169.19 146.98 168.86Q147.73 168.36 148.43 168.38C148.9 168.39 149.35 168.56 149.78 168.88Z" fill="#105720" fill-opacity="1.000000" fill-rule="evenodd"/>
	<path id="[Copy] Видео о компании «ЭКОЛОМ» Видео о компании «ЭКОЛОМ»" d="M133.23 175.59L137.09 183.23L138.64 182.45L137.99 174.94L143.61 179.94L145.16 179.16L141.31 171.51L140.26 172.04L142.75 176.98C142.86 177.21 142.98 177.43 143.09 177.64Q143.26 177.96 143.45 178.27L143.4 178.29L137.78 173.29L136.8 173.79L137.41 181.31L137.36 181.33C137.28 181.11 137.18 180.89 137.09 180.67C136.99 180.46 136.89 180.24 136.79 180.04L134.28 175.06L133.23 175.59Z" fill="#105720" fill-opacity="1.000000" fill-rule="evenodd"/>
	<path id="[Copy] Видео о компании «ЭКОЛОМ» Видео о компании «ЭКОЛОМ»" d="M123.99 178.97L126.82 187.06L133.59 184.69L130.76 176.61L129.53 177.04L131.98 184.06L127.68 185.57L125.22 178.54L123.99 178.97Z" fill="#105720" fill-opacity="1.000000" fill-rule="evenodd"/>
	<path id="[Copy] Видео о компании «ЭКОЛОМ» Видео о компании «ЭКОЛОМ»" d="M117.98 188.71Q118.86 189.21 120.35 188.87Q121.16 188.68 121.84 188.31C122.3 188.06 122.69 187.79 123.02 187.51L122.41 186.64C122.1 186.9 121.76 187.14 121.39 187.35C121.02 187.57 120.62 187.73 120.18 187.83Q119.37 188.02 118.81 187.72Q118.79 187.71 118.78 187.7C118.4 187.48 118.13 187.01 117.96 186.29L117.84 185.78L119.27 185.39Q121.28 184.86 122.12 183.96Q122.49 183.56 122.64 183.08Q122.82 182.5 122.66 181.82C122.54 181.26 122.32 180.83 122.01 180.52C121.7 180.22 121.33 180.02 120.89 179.93C120.46 179.84 119.99 179.86 119.48 179.98Q118.76 180.14 118.29 180.41C117.99 180.6 117.73 180.82 117.52 181.08Q117.21 181.48 116.97 182.02L116.91 182.03L116.38 180.85L115.46 181.07L116.77 186.74C116.99 187.72 117.4 188.37 117.98 188.71ZM118.91 184.54L117.65 184.89L117.48 184.12Q117.23 183.06 117.62 182.33Q117.68 182.21 117.76 182.11Q117.86 181.97 117.97 181.85Q118.52 181.28 119.44 181.07Q120.15 180.9 120.66 181.15C121.01 181.31 121.23 181.63 121.34 182.1Q121.45 182.56 121.33 182.95Q121.23 183.26 121 183.52C120.64 183.92 119.94 184.26 118.91 184.54Z" fill="#105720" fill-opacity="1.000000" fill-rule="evenodd"/>
	<path id="[Copy] Видео о компании «ЭКОЛОМ» Видео о компании «ЭКОЛОМ»" d="M112.29 186.6L112.68 190.18L113.97 190.04L113.05 181.52L111.75 181.66L112.17 185.51L107.43 186.02L107.01 182.18L105.72 182.32L106.64 190.83L107.93 190.69L107.54 187.12L112.29 186.6Z" fill="#105720" fill-opacity="1.000000" fill-rule="evenodd"/>
	<path id="[Copy] Видео о компании «ЭКОЛОМ» Видео о компании «ЭКОЛОМ»" d="M100.79 185.67L100.66 191.05L101.9 191.08L102.1 182.52L100.49 182.48L95.67 189.62C95.68 189.48 95.69 189.29 95.71 189.04C95.72 188.78 95.74 188.53 95.75 188.27C95.76 188.01 95.77 187.79 95.77 187.63L95.89 182.38L94.68 182.35L94.48 190.91L96.08 190.95L100.92 183.8C100.9 183.91 100.89 184.05 100.88 184.22C100.87 184.39 100.85 184.56 100.84 184.75C100.83 184.93 100.81 185.11 100.8 185.27C100.8 185.43 100.79 185.57 100.79 185.67Z" fill="#105720" fill-opacity="1.000000" fill-rule="evenodd"/>
	<path id="[Copy] Видео о компании «ЭКОЛОМ» Видео о компании «ЭКОЛОМ»" d="M89.73 185.07L88.91 190.39L90.13 190.58L91.44 182.12L89.86 181.88L84.14 188.33C84.17 188.19 84.21 187.99 84.26 187.75C84.31 187.5 84.35 187.25 84.4 186.99C84.44 186.73 84.48 186.52 84.5 186.36L85.31 181.17L84.11 180.98L82.8 189.45L84.37 189.69L90.1 183.23C90.08 183.34 90.05 183.48 90.01 183.64C89.98 183.81 89.94 183.98 89.9 184.16C89.87 184.35 89.83 184.52 89.8 184.68C89.77 184.84 89.75 184.97 89.73 185.07Z" fill="#105720" fill-opacity="1.000000" fill-rule="evenodd"/>
	<path id="[Copy] Видео о компании «ЭКОЛОМ» Видео о компании «ЭКОЛОМ»" d="" fill="#105720" fill-opacity="1.000000" fill-rule="evenodd"/>
	<path id="[Copy] Видео о компании «ЭКОЛОМ» Видео о компании «ЭКОЛОМ»" d="M72.96 185.85L76.47 183.63L76.53 183.43L74.99 179.59L73.94 179.81L75.22 183.13L72.24 185.06L72.96 185.85ZM69.96 184.88L73.51 182.67L73.58 182.47L71.99 178.62L70.96 178.85L72.23 182.16L69.26 184.09L69.96 184.88Z" fill="#105720" fill-opacity="1.000000" fill-rule="evenodd"/>
	<path id="[Copy] Видео о компании «ЭКОЛОМ» Видео о компании «ЭКОЛОМ»" d="M64.8 185.83C64.34 185.75 63.88 185.6 63.4 185.39Q62.61 185.03 62.08 184.5Q61.69 184.12 61.45 183.66Q61.36 183.49 61.29 183.3C61.11 182.86 61.03 182.38 61.04 181.86C61.06 181.34 61.17 180.8 61.37 180.23L66.5 182.56L66.98 181.49L61.84 179.15C62.14 178.52 62.49 178 62.89 177.59Q63.49 176.97 64.21 176.68Q64.3 176.64 64.39 176.61Q65.04 176.4 65.77 176.45C66.34 176.5 66.93 176.66 67.57 176.95Q68.28 177.27 68.85 177.68Q69.43 178.09 69.96 178.53L70.43 177.48C70.1 177.16 69.74 176.87 69.35 176.61C68.96 176.35 68.47 176.08 67.87 175.81Q66.19 175.05 64.77 175.22C63.83 175.33 62.98 175.72 62.24 176.37Q61.12 177.36 60.36 179.04Q59.84 180.18 59.71 181.26C59.62 181.98 59.68 182.66 59.87 183.31Q59.91 183.45 59.96 183.59Q60.27 184.4 60.91 185.08C61.4 185.62 62.07 186.07 62.9 186.45Q63.71 186.82 64.54 187.01Q65.37 187.19 66.11 187.18L66.07 185.93C65.68 185.94 65.25 185.9 64.8 185.83Z" fill="#105720" fill-opacity="1.000000" fill-rule="evenodd"/>
	<path id="[Copy] Видео о компании «ЭКОЛОМ» Видео о компании «ЭКОЛОМ»" d="M54.4 168.76L53.03 167.92L54.47 175.69L47.26 177.78L48.56 178.58L55.81 176.53L52.93 181.25L54.06 181.94L60.01 172.19L58.88 171.5L55.86 176.45L54.4 168.76Z" fill="#105720" fill-opacity="1.000000" fill-rule="evenodd"/>
	<path id="[Copy] Видео о компании «ЭКОЛОМ» Видео о компании «ЭКОЛОМ»" d="M42.36 163.65C41.73 164.07 41.14 164.62 40.58 165.3Q39.45 166.69 39.08 168.09Q38.84 169.02 38.95 169.9Q39.01 170.35 39.16 170.79Q39.6 172.08 40.91 173.15Q42.29 174.27 43.66 174.45C44.58 174.56 45.46 174.4 46.32 173.96Q47.6 173.3 48.7 171.95C49.26 171.26 49.68 170.57 49.97 169.88Q50.41 168.83 50.39 167.81C50.39 167.13 50.22 166.47 49.88 165.84Q49.38 164.89 48.35 164.05Q47.35 163.24 46.33 162.95C45.65 162.75 44.97 162.72 44.3 162.84C43.64 162.97 42.99 163.24 42.36 163.65ZM48.9 168.84Q48.55 169.92 47.63 171.05C47.02 171.81 46.38 172.37 45.72 172.73Q44.98 173.15 44.21 173.19Q43.96 173.21 43.71 173.18Q42.68 173.08 41.65 172.24Q40.48 171.29 40.25 170.14Q40.19 169.81 40.2 169.45Q40.27 167.9 41.67 166.19Q42.58 165.06 43.57 164.49Q44.34 164.05 45.13 164.01Q45.35 163.99 45.58 164.01C46.26 164.07 46.94 164.38 47.63 164.94Q48.65 165.77 48.95 166.76C49.15 167.42 49.13 168.11 48.9 168.84Z" fill="#105720" fill-opacity="1.000000" fill-rule="evenodd"/>
	<path id="[Copy] Видео о компании «ЭКОЛОМ» Видео о компании «ЭКОЛОМ»" d="M37.66 153.97L36.77 152.99L28.35 160.71L32.49 165.23Q33.52 164.51 34.5 163.83C35.15 163.37 35.76 162.95 36.34 162.56C36.92 162.16 37.43 161.82 37.89 161.52Q38.58 161.06 39.04 160.78Q39.6 160.44 40.16 160.15Q40.72 159.86 41.21 159.81C41.53 159.77 41.8 159.87 42.02 160.11Q42.19 160.3 42.3 160.5C42.37 160.63 42.43 160.76 42.47 160.89L43.3 160.13C43.24 160 43.17 159.85 43.08 159.69C42.98 159.53 42.87 159.39 42.75 159.25Q42.21 158.67 41.59 158.57Q41.58 158.56 41.57 158.56C41.15 158.5 40.68 158.57 40.17 158.76C39.66 158.96 39.1 159.25 38.47 159.64C38.09 159.87 37.66 160.14 37.19 160.46C36.71 160.77 36.21 161.11 35.69 161.47Q34.9 162.01 34.11 162.56Q33.33 163.11 32.61 163.62L30.11 160.89L37.66 153.97Z" fill="#105720" fill-opacity="1.000000" fill-rule="evenodd"/>
	<path id="[Copy] Видео о компании «ЭКОЛОМ» Видео о компании «ЭКОЛОМ»" d="M26.37 144.18C25.65 144.39 24.92 144.75 24.19 145.24Q22.71 146.24 21.95 147.47Q21.45 148.28 21.3 149.16Q21.22 149.61 21.24 150.07Q21.28 151.44 22.23 152.84Q23.22 154.32 24.48 154.88C25.33 155.26 26.22 155.36 27.17 155.19Q28.58 154.93 30.03 153.95C30.76 153.46 31.37 152.92 31.85 152.34Q32.57 151.47 32.85 150.49C33.04 149.84 33.07 149.16 32.94 148.45Q32.73 147.4 31.99 146.3Q31.27 145.23 30.38 144.65C29.78 144.27 29.15 144.04 28.47 143.96C27.8 143.89 27.1 143.96 26.37 144.18ZM31.12 151.04Q30.47 151.97 29.27 152.78C28.46 153.33 27.69 153.68 26.95 153.84Q26.12 154.02 25.37 153.84Q25.13 153.78 24.89 153.69Q23.94 153.29 23.2 152.19Q22.35 150.93 22.47 149.77Q22.51 149.43 22.62 149.1Q23.14 147.63 24.97 146.4Q26.18 145.59 27.29 145.33Q28.15 145.13 28.92 145.32Q29.14 145.37 29.35 145.46C29.98 145.71 30.55 146.2 31.04 146.94Q31.78 148.03 31.78 149.07C31.77 149.75 31.56 150.41 31.12 151.04Z" fill="#105720" fill-opacity="1.000000" fill-rule="evenodd"/>
	<path id="[Copy] Видео о компании «ЭКОЛОМ» Видео о компании «ЭКОЛОМ»" d="M17.93 143.03L25.52 135.33L25.07 134.34L14.27 135.02L14.25 134.96C14.46 134.88 14.7 134.79 14.99 134.67C15.27 134.56 15.57 134.44 15.88 134.31C16.2 134.17 16.51 134.04 16.82 133.89L23.46 130.85L22.92 129.65L12.54 134.42L13.35 136.19L23.51 135.57L23.54 135.62L16.41 142.87L17.23 144.66L27.61 139.89L27.1 138.77L20.54 141.78C20.19 141.94 19.86 142.1 19.54 142.26C19.21 142.42 18.91 142.57 18.64 142.71C18.37 142.85 18.14 142.98 17.95 143.09L17.93 143.03Z" fill="#105720" fill-opacity="1.000000" fill-rule="evenodd"/>
	<path id="[Copy] Видео о компании «ЭКОЛОМ» Видео о компании «ЭКОЛОМ»" d="M20.89 126.5L17.07 124.86L16.87 124.92L14.58 128.39L15.35 129.11L17.34 126.18L20.63 127.53L20.89 126.5ZM20 123.52L16.17 121.85L15.97 121.91L13.69 125.41L14.46 126.13L16.45 123.2L19.74 124.54L20 123.52Z" fill="#105720" fill-opacity="1.000000" fill-rule="evenodd"/>
	<path id="[Copy] Видео о компании «ЭКОЛОМ» Видео о компании «ЭКОЛОМ»" d="" fill="#105720" fill-opacity="1.000000" fill-rule="evenodd"/>
	<path id="[Copy] Видео о компании «ЭКОЛОМ» Видео о компании «ЭКОЛОМ»" d="" fill="#105720" fill-opacity="1.000000" fill-rule="evenodd"/>
	<path id="[Copy] Видео о компании «ЭКОЛОМ» Видео о компании «ЭКОЛОМ»" d="" fill="#105720" fill-opacity="1.000000" fill-rule="evenodd"/>
	<path id="[Copy] Видео о компании «ЭКОЛОМ» Видео о компании «ЭКОЛОМ»" d="" fill="#105720" fill-opacity="1.000000" fill-rule="evenodd"/>
	<path id="[Copy] Видео о компании «ЭКОЛОМ» Видео о компании «ЭКОЛОМ»" d="" fill="#105720" fill-opacity="1.000000" fill-rule="evenodd"/>
	<path id="[Copy] Видео о компании «ЭКОЛОМ» Видео о компании «ЭКОЛОМ»" d="M6.28 95.41L6.09 98.64L17.5 99.3L17.72 95.38Q17.79 94.16 17.47 93.25C17.26 92.65 16.92 92.17 16.46 91.81C15.99 91.46 15.41 91.26 14.71 91.22Q13.84 91.17 13.26 91.47C12.88 91.66 12.57 91.95 12.34 92.32C12.11 92.69 11.94 93.13 11.83 93.62L11.75 93.62C11.69 93.14 11.56 92.73 11.35 92.4C11.14 92.06 10.86 91.8 10.52 91.61C10.18 91.42 9.79 91.31 9.34 91.29Q8.27 91.23 7.6 91.72Q7.31 91.93 7.11 92.24Q6.4 93.28 6.28 95.41ZM11.19 95.42L11.06 97.6L7.3 97.38L7.41 95.42Q7.5 93.93 7.97 93.27Q8.11 93.07 8.3 92.94Q8.73 92.63 9.41 92.67C10.04 92.71 10.51 92.92 10.81 93.33Q11.27 93.93 11.19 95.42ZM16.44 97.91L12.18 97.67L12.31 95.41Q12.37 94.35 12.65 93.73C12.84 93.31 13.09 93.02 13.41 92.85C13.73 92.68 14.1 92.6 14.53 92.63Q15.28 92.67 15.78 93.05Q15.96 93.18 16.11 93.35Q16.67 94.02 16.58 95.54L16.44 97.91Z" fill="#105720" fill-opacity="1.000000" fill-rule="evenodd"/>
	<path id="[Copy] Видео о компании «ЭКОЛОМ» Видео о компании «ЭКОЛОМ»" d="M15.3 87.3L10.01 86.31L9.78 87.52L18.2 89.09L18.49 87.52L12.22 81.61C12.36 81.64 12.55 81.69 12.79 81.74C13.04 81.8 13.29 81.85 13.55 81.91C13.8 81.96 14.01 82 14.18 82.03L19.34 83L19.56 81.81L11.14 80.23L10.85 81.8L17.13 87.73C17.02 87.7 16.88 87.66 16.72 87.62C16.55 87.58 16.38 87.54 16.2 87.5C16.02 87.45 15.85 87.41 15.69 87.38C15.53 87.34 15.4 87.32 15.3 87.3Z" fill="#105720" fill-opacity="1.000000" fill-rule="evenodd"/>
	<path id="[Copy] Видео о компании «ЭКОЛОМ» Видео о компании «ЭКОЛОМ»" d="M21.18 72.22L14.07 69.94L12.72 74.18C13.58 74.46 14.41 74.82 15.2 75.25Q16.39 75.89 17.4 76.73Q18.4 77.56 19.15 78.57L18.94 79.21L22.81 80.45L23.19 79.26L20.37 78.36L22.22 72.59L25.04 73.49L25.42 72.29L21.55 71.05L21.18 72.22ZM14.05 73.39L14.67 71.45L20.8 73.42L19.56 77.28Q18.97 76.49 18.09 75.76Q17.21 75.02 16.16 74.41Q15.12 73.8 14.05 73.39Z" fill="#105720" fill-opacity="1.000000" fill-rule="evenodd"/>
	<path id="[Copy] Видео о компании «ЭКОЛОМ» Видео о компании «ЭКОЛОМ»" d="M18.02 61.24C17.51 61.58 17.11 62.08 16.81 62.75Q16.39 63.68 16.46 64.57Q16.47 64.68 16.49 64.79Q16.52 64.99 16.57 65.17Q16.78 65.95 17.37 66.63Q18.11 67.47 19.37 68.04Q20.66 68.62 21.76 68.55C22.49 68.51 23.13 68.28 23.69 67.86Q24.53 67.23 25.03 66.11Q25.39 65.31 25.53 64.68Q25.67 64.04 25.67 63.33L24.63 62.87C24.62 63.35 24.58 63.81 24.5 64.23C24.42 64.65 24.26 65.11 24.04 65.6Q23.61 66.57 22.87 66.98Q22.68 67.08 22.48 67.14C21.81 67.37 21.01 67.28 20.08 66.89L22.51 61.49L21.77 61.16C21.06 60.84 20.39 60.69 19.75 60.7C19.1 60.72 18.53 60.89 18.02 61.24ZM17.56 64.45Q17.48 63.85 17.77 63.2Q18.07 62.53 18.56 62.23C18.89 62.04 19.26 61.95 19.67 61.97C20.09 61.99 20.53 62.1 21 62.3L19.14 66.44C18.44 66.03 17.96 65.55 17.71 64.99Q17.6 64.72 17.56 64.45Z" fill="#105720" fill-opacity="1.000000" fill-rule="evenodd"/>
	<path id="[Copy] Видео о компании «ЭКОЛОМ» Видео о компании «ЭКОЛОМ»" d="M28.75 53.81C28.37 53.37 27.88 52.97 27.27 52.61C26.47 52.14 25.71 51.87 24.97 51.81Q24.17 51.75 23.48 51.99Q23.22 52.08 22.98 52.21Q22.94 52.23 22.9 52.26Q22.05 52.74 21.48 53.71Q20.85 54.76 20.84 55.79C20.84 56.47 21.04 57.12 21.44 57.73C21.84 58.34 22.45 58.89 23.25 59.37Q24.16 59.91 25.02 60.09Q25.87 60.26 26.63 60.11C27.13 60.01 27.59 59.8 28.01 59.5C28.43 59.19 28.78 58.79 29.07 58.3Q29.55 57.5 29.66 56.72C29.74 56.2 29.7 55.7 29.55 55.21Q29.32 54.47 28.75 53.81ZM25.62 58.89C25.09 58.79 24.53 58.56 23.94 58.21Q22.6 57.41 22.16 56.43C21.87 55.77 21.95 55.06 22.4 54.29Q22.87 53.51 23.51 53.23C23.93 53.04 24.41 53 24.93 53.1Q25.71 53.24 26.59 53.77Q27.47 54.3 27.98 54.92C28.32 55.33 28.52 55.78 28.56 56.25C28.6 56.72 28.47 57.21 28.16 57.72Q27.7 58.49 27.06 58.77C26.62 58.95 26.15 59 25.62 58.89Z" fill="#105720" fill-opacity="1.000000" fill-rule="evenodd"/>
	<path id="[Copy] Видео о компании «ЭКОЛОМ» Видео о компании «ЭКОЛОМ»" d="" fill="#105720" fill-opacity="1.000000" fill-rule="evenodd"/>
	<path id="[Copy] Видео о компании «ЭКОЛОМ» Видео о компании «ЭКОЛОМ»" d="M36.97 43.11C36.66 42.62 36.24 42.15 35.7 41.69C34.99 41.09 34.27 40.71 33.56 40.53Q32.78 40.34 32.06 40.47Q31.79 40.52 31.52 40.61Q31.48 40.62 31.44 40.64Q30.52 40.99 29.81 41.84Q29.02 42.78 28.85 43.8C28.73 44.47 28.82 45.14 29.12 45.81C29.42 46.48 29.93 47.11 30.65 47.72Q31.46 48.39 32.28 48.71Q33.09 49.02 33.87 48.99C34.38 48.97 34.87 48.84 35.33 48.6C35.79 48.37 36.2 48.03 36.57 47.59Q37.16 46.89 37.4 46.13C37.56 45.63 37.6 45.13 37.53 44.62Q37.43 43.86 36.97 43.11ZM33.06 47.63C32.56 47.44 32.04 47.13 31.52 46.69Q30.32 45.68 30.04 44.64C29.86 43.94 30.05 43.25 30.62 42.57Q31.21 41.88 31.88 41.7C32.33 41.58 32.81 41.61 33.31 41.79Q34.05 42.06 34.84 42.72Q35.63 43.39 36.03 44.08C36.3 44.55 36.42 45.02 36.39 45.49C36.35 45.96 36.14 46.42 35.76 46.87Q35.18 47.56 34.5 47.73C34.05 47.85 33.57 47.81 33.06 47.63Z" fill="#105720" fill-opacity="1.000000" fill-rule="evenodd"/>
	<path id="[Copy] Видео о компании «ЭКОЛОМ» Видео о компании «ЭКОЛОМ»" d="" fill="#105720" fill-opacity="1.000000" fill-rule="evenodd"/>
	<path id="[Copy] Видео о компании «ЭКОЛОМ» Видео о компании «ЭКОЛОМ»" d="M42.83 29.13L41.74 30.06L41.67 35.62L38.95 32.48L37.97 33.33L43.56 39.81L44.55 38.96L41.71 35.67L47.49 36.41L48.65 35.42L42.73 34.67L42.83 29.13Z" fill="#105720" fill-opacity="1.000000" fill-rule="evenodd"/>
	<path id="[Copy] Видео о компании «ЭКОЛОМ» Видео о компании «ЭКОЛОМ»" d="M54.44 28.33C54.27 27.77 53.99 27.2 53.59 26.62C53.06 25.86 52.48 25.29 51.84 24.94Q51.14 24.54 50.4 24.47Q50.13 24.45 49.85 24.47Q49.81 24.47 49.76 24.47Q48.79 24.56 47.87 25.2Q46.86 25.9 46.42 26.83C46.13 27.45 46.05 28.12 46.16 28.84C46.27 29.57 46.59 30.31 47.12 31.09Q47.72 31.95 48.43 32.47Q49.13 32.99 49.88 33.17C50.38 33.29 50.89 33.29 51.39 33.19C51.9 33.08 52.39 32.87 52.86 32.54Q53.62 32.02 54.05 31.35C54.33 30.91 54.51 30.44 54.58 29.93Q54.68 29.17 54.44 28.33ZM49.47 31.64C49.03 31.33 48.62 30.89 48.23 30.32Q47.34 29.04 47.35 27.96C47.36 27.24 47.73 26.62 48.46 26.12Q49.21 25.6 49.91 25.61C50.38 25.62 50.83 25.78 51.26 26.08Q51.91 26.54 52.49 27.39Q53.07 28.24 53.28 29.02C53.41 29.54 53.4 30.02 53.24 30.46C53.08 30.91 52.76 31.3 52.27 31.63Q51.53 32.14 50.83 32.13C50.36 32.12 49.91 31.95 49.47 31.64Z" fill="#105720" fill-opacity="1.000000" fill-rule="evenodd"/>
	<path id="[Copy] Видео о компании «ЭКОЛОМ» Видео о компании «ЭКОЛОМ»" d="M66.37 24.58L62.49 16.95L60.94 17.73L61.62 25.25L55.98 20.26L54.43 21.05L58.31 28.69L59.36 28.15L56.85 23.22C56.73 22.99 56.62 22.77 56.5 22.56Q56.33 22.25 56.15 21.94L56.19 21.92L61.83 26.89L62.81 26.39L62.18 18.87L62.22 18.85C62.31 19.07 62.4 19.29 62.5 19.51C62.59 19.72 62.69 19.93 62.8 20.14L65.32 25.11L66.37 24.58Z" fill="#105720" fill-opacity="1.000000" fill-rule="evenodd"/>
	<path id="[Copy] Видео о компании «ЭКОЛОМ» Видео о компании «ЭКОЛОМ»" d="M75.08 21.32L72.19 13.25L65.44 15.67L68.32 23.74L69.55 23.3L67.04 16.29L71.34 14.75L73.85 21.76L75.08 21.32Z" fill="#105720" fill-opacity="1.000000" fill-rule="evenodd"/>
	<path id="[Copy] Видео о компании «ЭКОЛОМ» Видео о компании «ЭКОЛОМ»" d="M81.15 11.47Q80.27 10.97 78.78 11.32Q77.98 11.51 77.29 11.89C76.84 12.14 76.45 12.4 76.12 12.68L76.73 13.55C77.04 13.29 77.38 13.06 77.75 12.84C78.12 12.62 78.52 12.46 78.95 12.35Q79.77 12.16 80.32 12.46Q80.34 12.47 80.36 12.48C80.74 12.7 81.01 13.17 81.18 13.89L81.3 14.4L79.88 14.79Q77.87 15.33 77.04 16.23Q76.66 16.64 76.52 17.11Q76.34 17.69 76.5 18.38C76.63 18.93 76.85 19.36 77.16 19.67C77.47 19.98 77.84 20.17 78.27 20.26C78.71 20.34 79.18 20.33 79.69 20.21Q80.41 20.04 80.87 19.76C81.18 19.58 81.43 19.36 81.64 19.09Q81.95 18.7 82.19 18.16L82.25 18.14L82.78 19.32L83.7 19.1L82.38 13.44C82.15 12.46 81.74 11.8 81.15 11.47ZM80.24 15.64L81.49 15.29L81.67 16.06Q81.92 17.12 81.54 17.85Q81.48 17.96 81.4 18.07Q81.3 18.21 81.19 18.33Q80.64 18.9 79.73 19.11Q79.01 19.28 78.5 19.04C78.16 18.88 77.93 18.56 77.82 18.09Q77.71 17.63 77.83 17.24Q77.92 16.93 78.16 16.67C78.51 16.27 79.21 15.92 80.24 15.64Z" fill="#105720" fill-opacity="1.000000" fill-rule="evenodd"/>
	<path id="[Copy] Видео о компании «ЭКОЛОМ» Видео о компании «ЭКОЛОМ»" d="M86.94 13.48L86.54 9.91L85.24 10.05L86.2 18.56L87.49 18.42L87.06 14.57L91.81 14.04L92.24 17.88L93.53 17.74L92.57 9.23L91.28 9.38L91.68 12.95L86.94 13.48Z" fill="#105720" fill-opacity="1.000000" fill-rule="evenodd"/>
	<path id="[Copy] Видео о компании «ЭКОЛОМ» Видео о компании «ЭКОЛОМ»" d="M98.33 14.31L98.44 8.93L97.2 8.9L97.04 17.47L98.64 17.5L103.44 10.34C103.43 10.48 103.42 10.68 103.4 10.93C103.39 11.18 103.37 11.44 103.36 11.7C103.35 11.96 103.35 12.17 103.34 12.34L103.24 17.59L104.45 17.61L104.62 9.05L103.02 9.02L98.21 16.18C98.23 16.07 98.24 15.94 98.25 15.77C98.26 15.6 98.27 15.42 98.29 15.24C98.3 15.05 98.31 14.88 98.32 14.71C98.33 14.55 98.33 14.41 98.33 14.31Z" fill="#105720" fill-opacity="1.000000" fill-rule="evenodd"/>
	<path id="[Copy] Видео о компании «ЭКОЛОМ» Видео о компании «ЭКОЛОМ»" d="M109.81 14.86L110.61 9.54L109.39 9.35L108.11 17.82L109.7 18.06L115.39 11.59C115.36 11.72 115.32 11.92 115.27 12.16C115.23 12.41 115.18 12.67 115.14 12.92C115.09 13.18 115.06 13.39 115.03 13.55L114.25 18.75L115.44 18.93L116.72 10.46L115.15 10.22L109.44 16.7C109.47 16.59 109.5 16.46 109.53 16.29C109.57 16.12 109.6 15.95 109.64 15.77C109.68 15.59 109.71 15.42 109.74 15.25C109.77 15.09 109.79 14.96 109.81 14.86Z" fill="#105720" fill-opacity="1.000000" fill-rule="evenodd"/>
	<path id="[Copy] Видео о компании «ЭКОЛОМ» Видео о компании «ЭКОЛОМ»" d="" fill="#105720" fill-opacity="1.000000" fill-rule="evenodd"/>
	<path id="[Copy] Видео о компании «ЭКОЛОМ» Видео о компании «ЭКОЛОМ»" d="M126.61 14L123.1 16.23L123.04 16.43L124.6 20.27L125.65 20.04L124.35 16.73L127.33 14.79L126.61 14ZM129.61 14.96L126.06 17.18L126 17.38L127.6 21.23L128.63 21L127.35 17.69L130.31 15.74L129.61 14.96Z" fill="#105720" fill-opacity="1.000000" fill-rule="evenodd"/>
	<path id="[Copy] Видео о компании «ЭКОЛОМ» Видео о компании «ЭКОЛОМ»" d="M134.75 13.98C135.2 14.05 135.67 14.2 136.15 14.41Q136.94 14.77 137.47 15.29Q137.86 15.68 138.1 16.14Q138.19 16.31 138.27 16.49C138.44 16.93 138.53 17.41 138.52 17.93C138.5 18.45 138.4 19 138.19 19.57L133.06 17.25L132.58 18.32L137.73 20.64C137.43 21.27 137.08 21.79 136.68 22.21Q136.09 22.83 135.37 23.13Q135.28 23.16 135.19 23.19Q134.54 23.41 133.8 23.36C133.24 23.32 132.64 23.15 132.01 22.87Q131.3 22.54 130.72 22.14Q130.15 21.73 129.61 21.29L129.14 22.35C129.48 22.67 129.84 22.96 130.23 23.22C130.62 23.47 131.11 23.74 131.72 24.01Q133.39 24.76 134.81 24.59C135.76 24.47 136.6 24.08 137.34 23.42Q138.45 22.43 139.21 20.74Q139.72 19.61 139.85 18.53C139.93 17.81 139.88 17.12 139.68 16.48Q139.64 16.33 139.59 16.2Q139.28 15.39 138.64 14.71C138.14 14.18 137.47 13.72 136.64 13.35Q135.83 12.99 135 12.8Q134.17 12.61 133.43 12.63L133.47 13.88C133.87 13.87 134.29 13.91 134.75 13.98Z" fill="#105720" fill-opacity="1.000000" fill-rule="evenodd"/>
	<path id="[Copy] Видео о компании «ЭКОЛОМ» Видео о компании «ЭКОЛОМ»" d="M145 30.86L146.38 31.69L144.91 23.93L152.1 21.81L150.8 21.02L143.56 23.1L146.42 18.36L145.29 17.68L139.37 27.45L140.51 28.14L143.51 23.18L145 30.86Z" fill="#105720" fill-opacity="1.000000" fill-rule="evenodd"/>
	<path id="[Copy] Видео о компании «ЭКОЛОМ» Видео о компании «ЭКОЛОМ»" d="M157.17 35.93C157.8 35.51 158.39 34.96 158.94 34.27Q160.06 32.88 160.43 31.48Q160.67 30.56 160.55 29.67Q160.49 29.23 160.34 28.79Q159.9 27.49 158.58 26.43Q157.2 25.31 155.83 25.14C154.91 25.03 154.02 25.2 153.17 25.64Q151.89 26.3 150.79 27.66C150.24 28.35 149.82 29.04 149.53 29.74Q149.1 30.79 149.12 31.81C149.13 32.48 149.3 33.14 149.64 33.77Q150.14 34.72 151.17 35.56Q152.17 36.37 153.2 36.65C153.88 36.85 154.56 36.88 155.23 36.75C155.89 36.63 156.54 36.35 157.17 35.93ZM150.61 30.77Q150.96 29.68 151.87 28.55C152.48 27.8 153.12 27.23 153.77 26.86Q154.52 26.45 155.28 26.4Q155.53 26.38 155.78 26.41Q156.81 26.5 157.84 27.34Q159.02 28.29 159.25 29.44Q159.32 29.77 159.31 30.12Q159.24 31.68 157.85 33.4Q156.94 34.53 155.96 35.1Q155.19 35.54 154.39 35.59Q154.17 35.6 153.95 35.58C153.27 35.53 152.58 35.22 151.89 34.66Q150.87 33.83 150.57 32.85C150.37 32.19 150.38 31.5 150.61 30.77Z" fill="#105720" fill-opacity="1.000000" fill-rule="evenodd"/>
	<path id="[Copy] Видео о компании «ЭКОЛОМ» Видео о компании «ЭКОЛОМ»" d="M161.89 45.53L162.8 46.51L171.19 38.76L167.02 34.24Q166 34.98 165.02 35.66C164.37 36.11 163.76 36.54 163.19 36.94C162.61 37.33 162.1 37.68 161.64 37.98Q160.95 38.44 160.49 38.72Q159.94 39.06 159.38 39.35Q158.81 39.64 158.33 39.7C158.01 39.74 157.74 39.64 157.51 39.4Q157.35 39.22 157.23 39.01C157.16 38.88 157.1 38.75 157.06 38.63L156.24 39.39C156.29 39.52 156.37 39.67 156.46 39.82C156.56 39.98 156.67 40.13 156.79 40.26Q157.33 40.85 157.95 40.95Q157.96 40.95 157.97 40.95C158.39 41.01 158.86 40.94 159.37 40.75C159.88 40.55 160.44 40.25 161.07 39.86C161.45 39.63 161.88 39.36 162.35 39.04C162.82 38.72 163.32 38.38 163.84 38.02Q164.63 37.48 165.41 36.92Q166.2 36.37 166.91 35.85L169.43 38.58L161.89 45.53Z" fill="#105720" fill-opacity="1.000000" fill-rule="evenodd"/>
	<path id="[Copy] Видео о компании «ЭКОЛОМ» Видео о компании «ЭКОЛОМ»" d="M173.19 55.13C173.91 54.9 174.64 54.55 175.36 54.05Q176.84 53.04 177.59 51.8Q178.09 50.98 178.23 50.1Q178.3 49.66 178.28 49.2Q178.23 47.83 177.27 46.43Q176.27 44.96 175 44.41C174.16 44.04 173.26 43.94 172.32 44.12Q170.9 44.39 169.46 45.38C168.73 45.87 168.13 46.41 167.65 47Q166.94 47.88 166.66 48.86C166.48 49.52 166.46 50.19 166.6 50.9Q166.81 51.95 167.56 53.05Q168.28 54.11 169.18 54.68C169.78 55.06 170.42 55.28 171.09 55.35C171.77 55.43 172.47 55.35 173.19 55.13ZM168.39 48.3Q169.03 47.36 170.23 46.54C171.04 45.99 171.81 45.63 172.54 45.47Q173.37 45.28 174.12 45.45Q174.36 45.51 174.6 45.61Q175.56 45.99 176.31 47.09Q177.16 48.34 177.05 49.5Q177.02 49.84 176.91 50.18Q176.4 51.65 174.57 52.89Q173.38 53.71 172.27 53.98Q171.41 54.18 170.63 54Q170.42 53.95 170.21 53.87C169.57 53.62 169 53.13 168.5 52.4Q167.76 51.31 167.75 50.28C167.75 49.59 167.96 48.93 168.39 48.3Z" fill="#105720" fill-opacity="1.000000" fill-rule="evenodd"/>
	<path id="[Copy] Видео о компании «ЭКОЛОМ» Видео о компании «ЭКОЛОМ»" d="M181.82 56.48L174.26 64.21L174.71 65.2L185.5 64.48L185.53 64.54C185.32 64.62 185.07 64.71 184.79 64.83C184.51 64.94 184.21 65.06 183.89 65.2C183.58 65.33 183.27 65.47 182.96 65.61L176.33 68.69L176.88 69.88L187.24 65.08L186.42 63.3L176.26 63.97L176.24 63.92L183.34 56.64L182.51 54.85L172.15 59.65L172.67 60.77L179.22 57.74C179.56 57.58 179.89 57.42 180.21 57.26C180.54 57.1 180.84 56.95 181.11 56.8C181.38 56.66 181.61 56.53 181.79 56.42L181.82 56.48Z" fill="#105720" fill-opacity="1.000000" fill-rule="evenodd"/>
	<path id="[Copy] Видео о компании «ЭКОЛОМ» Видео о компании «ЭКОЛОМ»" d="M178.87 72.8L182.7 74.42L182.9 74.35L185.16 70.86L184.39 70.15L182.42 73.09L179.12 71.77L178.87 72.8ZM179.78 75.77L183.62 77.41L183.83 77.35L186.08 73.83L185.3 73.12L183.33 76.07L180.03 74.75L179.78 75.77Z" fill="#105720" fill-opacity="1.000000" fill-rule="evenodd"/>
	<rect id="play" rx="-0.500000" width="31.000000" height="31.000000" transform="translate(84.500000 84.500000)" fill="#FFFFFF" fill-opacity="0"/>
	<g clip-path="url(#clip0_983)"/>
</svg>
