<svg width="30.000000" height="30.000000" viewBox="0 0 30 30" fill="none" xmlns="http://www.w3.org/2000/svg" xmlns:xlink="http://www.w3.org/1999/xlink">
	<desc>
			Created with Pixso.
	</desc>
	<defs/>
	<circle id="Ellipse 62" cx="15.000000" cy="15.000000" r="15.000000" fill="#F3F7F4" fill-opacity="1.000000"/>
	<circle id="Ellipse 62" cx="15.000000" cy="15.000000" r="14.500000" stroke="#FFFFFF" stroke-opacity="0" stroke-width="1.000000"/>
	<path id="Icon" d="M14.99 7C13.52 7 12.07 7.4 10.82 8.17C9.56 8.94 8.54 10.04 7.87 11.36C7.2 12.67 6.91 14.14 7.02 15.61C7.13 17.08 7.65 18.49 8.51 19.68L7.51 22.66L10.59 21.67C11.63 22.36 12.82 22.79 14.06 22.94C15.3 23.09 16.55 22.94 17.73 22.52C18.9 22.09 19.95 21.4 20.81 20.49C21.67 19.58 22.3 18.49 22.66 17.29C23.02 16.1 23.09 14.84 22.87 13.61C22.66 12.38 22.16 11.22 21.41 10.22C20.67 9.22 19.7 8.4 18.58 7.84C17.47 7.29 16.24 6.99 14.99 7ZM19.24 18.31L18.39 19.16C17.49 20.06 15.12 19.07 13.01 16.96C10.91 14.85 9.96 12.48 10.82 11.6L11.67 10.74C11.83 10.59 12.05 10.51 12.27 10.51C12.5 10.51 12.71 10.59 12.88 10.74L14.13 12C14.24 12.09 14.31 12.22 14.35 12.36C14.39 12.49 14.4 12.64 14.37 12.78C14.33 12.92 14.27 13.05 14.17 13.15C14.08 13.26 13.95 13.34 13.82 13.38C13.62 13.45 13.45 13.58 13.35 13.77C13.25 13.95 13.23 14.17 13.28 14.37C13.51 15.31 14.72 16.48 15.61 16.7C15.81 16.74 16.02 16.71 16.2 16.61C16.38 16.51 16.52 16.35 16.59 16.16C16.64 16.02 16.72 15.9 16.82 15.8C16.93 15.7 17.06 15.63 17.2 15.6C17.34 15.57 17.49 15.58 17.63 15.62C17.77 15.66 17.89 15.74 17.99 15.84L19.24 17.1C19.4 17.26 19.48 17.48 19.48 17.7C19.48 17.93 19.39 18.14 19.24 18.31Z" fill="#105720" fill-opacity="1.000000" fill-rule="nonzero"/>
</svg>
